Coordinates
version=1
nRows=20
nColumns=34
inDegrees=yes

Units are S.I. units (second, meters, Newtons, ...)
If the header above contains a line with 'inDegrees', this indicates whether rotational values are in degrees (yes) or radians (no).

endheader
time	pelvis_tilt	pelvis_list	pelvis_rotation	pelvis_tx	pelvis_ty	pelvis_tz	hip_flexion_r	hip_adduction_r	hip_rotation_r	knee_angle_r	ankle_angle_r	subtalar_angle_r	mtp_angle_r	hip_flexion_l	hip_adduction_l	hip_rotation_l	knee_angle_l	ankle_angle_l	subtalar_angle_l	mtp_angle_l	lumbar_extension	lumbar_bending	lumbar_rotation	arm_flex_r	arm_add_r	arm_rot_r	elbow_flex_r	pro_sup_r	arm_flex_l	arm_add_l	arm_rot_l	elbow_flex_l	pro_sup_l
      2.73333330	      0.89800094	     -1.67696103	      3.40932902	      0.19794582	      0.95873869	     -0.18617665	     33.95987877	     -5.83567837	     -5.87710520	      1.52156613	    -13.94529858	     -2.67378135	      0.00000000	     13.21789084	      6.71230199	      5.59104530	     32.92175066	     13.04368602	     -3.17356373	      0.00000000	    -18.73198368	     -0.36108805	      1.68862201	     44.71019752	      3.95037627	     63.82257380	    122.27147362	     90.64773549	     57.35588936	      1.26689050	     72.99775455	    126.19024102	     67.35032709
      2.75000000	      1.40608530	     -1.83496733	      3.24992688	      0.19883555	      0.96191576	     -0.18581555	     33.53820526	     -5.66612536	     -6.17379614	      1.75542093	    -14.14032224	     -2.46448097	      0.00000000	     12.08181804	      6.45713067	      5.98671936	     31.56131856	     11.48769333	     -3.36457484	      0.00000000	    -19.11834813	     -0.14765079	      1.57947868	     44.38889756	      3.87109420	     61.71927417	    121.77445232	     90.53463613	     57.23204219	      1.16551598	     72.48296233	    126.39277667	     67.10774560
      2.76666670	      1.46697476	     -2.00996779	      2.97557283	      0.20258508	      0.96327485	     -0.18515942	     33.54767273	     -5.44043418	     -6.47257687	      1.93404707	    -14.20477581	     -2.74004581	      0.00000000	     11.34817871	      6.14813840	      6.07331885	     30.29535698	     10.47959324	     -2.98845833	      0.00000000	    -18.76177258	      0.00231166	      1.66071215	     43.90490116	      4.20039402	     62.39610590	    122.07400109	     90.57884462	     56.64089476	      1.20876148	     72.70788941	    126.26197777	     67.03927322
      2.78333330	      1.47690286	     -2.09766146	      2.93787200	      0.20187318	      0.96804610	     -0.18466763	     33.57503357	     -5.32764489	     -6.49424298	      1.97178302	    -14.48176244	     -2.79498515	      0.00000000	     10.78551357	      5.94505605	      6.34970224	     28.95971206	      9.66760936	     -2.71120604	      0.00000000	    -18.47313674	      0.12487199	      1.77568487	     43.50151880	      4.30126833	     63.02949014	    122.13332946	     90.61702978	     56.38438057	      1.14659547	     72.87203243	    126.14035268	     66.98324073
      2.80000000	      1.53005737	     -2.00975120	      3.10018133	      0.20339196	      0.97277270	     -0.18498700	     33.31765930	     -5.42505777	     -6.39120330	      1.81613152	    -14.49940921	     -2.77428567	      0.00000000	      9.96350399	      5.94335058	      6.72498777	     27.42182982	      9.30167737	     -2.56260532	      0.00000000	    -18.03256801	      0.00427205	      1.64445634	     42.94702127	      4.36744018	     63.72334030	    122.14912274	     90.65674132	     55.95904915	      1.23742852	     73.10591163	    126.08566040	     66.92619986
      2.81666670	      1.60699505	     -1.96803232	      3.17386687	      0.20204792	      0.97629693	     -0.18490689	     33.05462050	     -5.45749581	     -6.47181822	      1.53468412	    -14.73229440	     -2.59288609	      0.00000000	      9.28945245	      5.85804345	      6.77046681	     26.07362816	      8.55161798	     -2.47687736	      0.00000000	    -17.85351715	      0.07856597	      1.63530417	     42.69945665	      4.30295575	     64.20496479	    121.96331223	     90.68236075	     55.75130829	      1.20247994	     73.23305763	    126.01709168	     66.82926941
      2.83333330	      1.72715749	     -2.00046729	      3.25572321	      0.20207523	      0.97947934	     -0.18475185	     32.87828618	     -5.43081755	     -6.76272390	      1.51860746	    -14.66029266	     -2.64730150	      0.00000000	      8.64909669	      5.66875042	      6.82119571	     24.96379594	      7.68560754	     -2.32306246	      0.00000000	    -17.65838057	      0.20658217	      1.64514520	     42.59315433	      4.23494893	     64.19989599	    121.81592056	     90.67343112	     55.57931260	      1.17851547	     73.25897683	    126.13106558	     66.73956279
      2.85000000	      2.05238877	     -2.17022363	      3.32468695	      0.20083661	      0.98279220	     -0.18446827	     32.57515932	     -5.28752874	     -7.02332534	      1.72987673	    -14.64493550	     -2.74962531	      0.00000000	      7.95969344	      5.35924394	      6.86359890	     24.10113203	      6.75732938	     -2.09874107	      0.00000000	    -17.86889822	      0.50010005	      1.54766532	     42.69438662	      3.86036595	     62.76593754	    121.19893373	     90.55163829	     55.65705744	      1.16876289	     72.91110291	    126.25165008	     66.51480526
      2.86666670	      2.05230305	     -2.29798543	      3.38144872	      0.20194111	      0.98234235	     -0.18398486	     32.70350638	     -5.16903694	     -6.98745615	      1.96294024	    -14.64429414	     -2.74901375	      0.00000000	      7.55963295	      5.10829110	      6.90256930	     23.21893947	      6.94603253	     -2.12579509	      0.00000000	    -17.53153203	      0.67044798	      1.45079494	     42.85734895	      3.77001065	     62.48807254	    121.19169455	     90.53113016	     55.65268525	      1.20964816	     72.91349746	    126.29762755	     66.48741637
      2.88333330	      2.09325290	     -2.42512117	      3.30945352	      0.20085677	      0.98444389	     -0.18367356	     32.76327571	     -4.95065482	     -7.05165634	      2.17272527	    -14.65538617	     -2.78556540	      0.00000000	      7.29279230	      4.87675497	      6.99446156	     22.53811184	      6.99936577	     -2.06554586	      0.00000000	    -17.27848122	      0.74412383	      1.51909115	     42.98092085	      3.82296642	     62.14126924	    121.15614759	     90.50184289	     55.62637168	      1.20177463	     72.88812154	    126.37626368	     66.45920960
      2.90000000	      2.43871747	     -2.42398068	      3.29429236	      0.19989289	      0.98577032	     -0.18246154	     32.41028719	     -4.81596079	     -7.00034775	      2.09119292	    -14.74553087	     -2.75639065	      0.00000000	      6.69636012	      4.67428148	      6.78263452	     21.80427268	      7.03723601	     -1.82552398	      0.00000000	    -17.35512124	      0.83235207	      1.86184662	     42.77189636	      3.82452316	     60.30240792	    120.48084843	     90.31367740	     55.55958395	      1.11315182	     72.55367655	    126.59700178	     66.27456852
      2.91666670	      2.54517897	     -2.46491041	      3.32065458	      0.19904727	      0.98724683	     -0.18250048	     32.39076490	     -4.69861585	     -7.10850070	      2.22336801	    -14.61875181	     -2.91765150	      0.00000000	      6.49132537	      4.53656733	      6.86840791	     21.28538660	      7.32054634	     -1.83778358	      0.00000000	    -17.09538376	      0.68708261	      1.91530457	     42.67268484	      4.27841620	     60.50345772	    120.63383589	     90.30395266	     55.62812562	      1.22107295	     72.55404210	    126.45365172	     66.22626440
      2.93333330	      2.63881713	     -2.43080329	      3.41699461	      0.19953737	      0.99050859	     -0.18195999	     32.30146652	     -4.66057408	     -7.00058463	      2.34423244	    -14.45135707	     -2.95756413	      0.00000000	      6.29372254	      4.43098966	      6.85995365	     20.86850833	      7.63292824	     -1.94284125	      0.00000000	    -16.87470253	      0.59627560	      1.80798790	     42.62380853	      4.18730892	     60.45780038	    120.52912399	     90.29035186	     55.70911201	      1.20609850	     72.54641198	    126.35541547	     66.19117371
      2.95000000	      2.82938630	     -2.40525719	      3.44059598	      0.19881565	      0.99101707	     -0.18157777	     32.03733632	     -4.57255495	     -6.80746765	      2.37275794	    -14.06649642	     -2.94471493	      0.00000000	      5.89064889	      4.35091757	      6.90002388	     20.43520259	      7.89037029	     -2.04216351	      0.00000000	    -16.69337499	      0.38955315	      1.77612306	     42.30249565	      4.43873423	     60.62541259	    120.53335251	     90.27210163	     55.52549193	      1.08614201	     72.58141406	    125.96638920	     66.08944398
      2.96666670	      2.98984413	     -2.34565825	      3.77307639	      0.19710927	      0.99387381	     -0.18148138	     31.80350568	     -4.67207216	     -6.89841951	      2.42553066	    -14.02211927	     -2.82145043	      0.00000000	      5.60927304	      4.33989900	      6.90607746	     19.80731674	      7.50837861	     -2.11027926	      0.00000000	    -16.65844819	      0.29114459	      1.67737586	     42.28913705	      4.66055565	     61.08082431	    120.65289362	     90.26207210	     55.74485921	      1.10486651	     72.54324736	    125.62511060	     65.92664664
      2.98333330	      3.06437438	     -2.37063196	      3.95388473	      0.19823826	      0.99285578	     -0.18002278	     31.68414925	     -4.59907035	     -6.95566729	      2.55990965	    -13.84759981	     -2.91226215	      0.00000000	      5.39542305	      4.21586627	      7.00446803	     19.43898423	      7.57740990	     -2.16317957	      0.00000000	    -16.42020512	      0.26965467	      1.65671367	     42.12541408	      4.92691154	     61.39383150	    120.89523708	     90.27074229	     55.89938073	      1.16654196	     72.49296751	    125.57065391	     65.88063452
      3.00000000	      3.31743712	     -2.46002939	      4.10205625	      0.19700552	      0.99357807	     -0.18027428	     31.38487171	     -4.51082886	     -7.07983278	      2.77024136	    -13.93690803	     -2.82784897	      0.00000000	      4.97029033	      4.08528449	      7.04266255	     19.16986761	      7.17518832	     -2.21374374	      0.00000000	    -16.47205196	      0.25161987	      1.38221903	     42.16672902	      4.94340260	     62.42259601	    121.91781873	     90.31332745	     56.13123500	      1.10351666	     72.22143311	    124.98444480	     65.65478924
      3.01666670	      3.35200055	     -2.56405409	      4.18909764	      0.19624209	      0.99398114	     -0.17977597	     31.32988546	     -4.35998865	     -7.14637592	      2.92673404	    -13.83967013	     -2.83877292	      0.00000000	      4.79057006	      3.95921327	      7.01903680	     18.92982380	      7.10028139	     -2.27239075	      0.00000000	    -16.38983921	      0.38604141	      1.41777672	     41.91313363	      5.09377842	     62.93175673	    122.51796083	     90.34055631	     56.27832636	      0.97385493	     72.08471863	    124.92537999	     65.54462988
      3.03333330	      3.28775220	     -2.69655768	      4.11395379	      0.19588958	      0.99452541	     -0.17938529	     31.33500987	     -4.15089855	     -7.14058815	      3.09585206	    -13.77035646	     -2.86344810	      0.00000000	      4.62525629	      3.78750695	      7.05287584	     18.56938679	      7.15168461	     -2.28223282	      0.00000000	    -16.23694575	      0.42820326	      1.36391789	     42.00071339	      5.00041845	     62.88303925	    122.66489266	     90.34298765	     56.30904175	      0.87108521	     72.00892528	    124.91281842	     65.51131455
      3.05000000	      3.23210523	     -2.74872513	      4.09408130	      0.19651746	      0.99461303	     -0.17918548	     31.13233054	     -4.01401140	     -7.15292369	      2.89026863	    -13.73116385	     -2.85007991	      0.00000000	      4.37043859	      3.71924966	      6.98564959	     17.98615356	      7.01257475	     -2.22932436	      0.00000000	    -15.94231925	      0.51584028	      1.47593054	     41.89182149	      5.02339461	     62.96823339	    122.91581549	     90.35355650	     56.03379377	      0.73726895	     72.01124740	    124.91525903	     65.46763546
